<svg xmlns="http://www.w3.org/2000/svg" viewBox="0 0 32 32">
  <path d="M31.396 14.575L17.425.604a2.06 2.06 0 00-2.914 0l-2.9 2.9 3.68 3.68c.856-.3 1.836-.095 2.518.587a2.45 2.45 0 01.581 2.533l3.547 3.547c.858-.296 1.848-.105 2.533.582a2.45 2.45 0 010 3.469 2.45 2.45 0 01-3.469 0 2.45 2.45 0 01-.54-2.681l-3.308-3.308v8.705a2.45 2.45 0 011.168 3.359 2.45 2.45 0 01-3.469 0 2.45 2.45 0 010-3.469c.602-.602 1.488-.746 2.23-.436V11.692c-.742.31-1.628.165-2.23-.437a2.45 2.45 0 01-.532-2.686L9.11 4.883l-8.506 8.506a2.06 2.06 0 000 2.914l13.971 13.971a2.06 2.06 0 002.914 0L31.396 17.49a2.06 2.06 0 000-2.914" fill="#F03C2E"/>
</svg> 