<svg xmlns="http://www.w3.org/2000/svg" viewBox="0 0 32 32">
  <path d="M15.9.087l.854 1.604c.192.296.4.558.645.802.715.715 1.394 1.464 2.004 2.266 1.447 1.9 2.423 4.01 3.12 6.292.418 1.394.645 2.824.662 4.27.07 4.323-1.412 8.035-4.4 11.12-.488.488-1.01.94-1.57 1.342-.296 0-.436-.227-.558-.436-.227-.383-.366-.802-.436-1.217-.174-.73-.314-1.464-.366-2.213v-.436l-.034-.156v-.07c.174-1.464-.227-2.824-.697-4.183-.26-.767-.697-1.464-1.15-2.126-.14-.174-.227-.435-.34-.645-.034-.087-.087-.174-.118-.26v-.035c-.053-.087-.105-.174-.14-.26-.186-.383-.38-.732-.645-1.046v-.087l-.01-.053c-.105-.174-.21-.383-.34-.558-.262-.383-.505-.767-.767-1.15l-.288-.462c-.383-.61-.819-1.196-1.196-1.817-.21-.3-.436-.645-.558-1.01-.157-.435-.21-.872-.262-1.342v-.73c-.105-.523-.122-1.01-.157-1.544v-.462c-.035-.384-.087-.732-.087-1.116v-.92c.052-.384.087-.732.157-1.116.07-.384.157-.732.262-1.116.21-.775.575-1.464 1.08-2.126.244-.34.558-.645.907-.95.437-.384.91-.732 1.447-.95.488-.227 1.01-.383 1.553-.462.418-.052.872-.052 1.29-.087.432.035.827.07 1.242.157 1.078.21 2.039.645 2.962 1.185.488.296.94.645 1.378 1.01.663.558 1.242 1.196 1.73 1.896.314.435.558.91.767 1.395.435.872.732 1.825.94 2.824.087.523.122 1.01.157 1.553v1.257c-.035.38-.052.78-.105 1.167v.092h-.017c-.192.974-.507 1.9-.872 2.823-.14.44-.366.872-.558 1.312-.21.435-.488.838-.767 1.22-.158.21-.227.435-.366.645-.034.052-.07.07-.087.122-.314.48-.697.907-1.082 1.325-.153.174-.297.383-.47.558-.487.558-1.01 1.08-1.617 1.464-.026 0-.053.053-.088.053v.035c-.105.087-.192.174-.297.26-.245.21-.523.383-.767.558-.087.053-.21.14-.297.21v.017l-.052.035-.105.07c-.314.21-.662.435-1.01.558-.166.087-.34.156-.523.21v.053c-.087.017-.105.07-.192.087-.21.087-.435.174-.662.21-.488.157-1.01.21-1.553.21v.035c-.488 0-.952-.087-1.447-.157-.174-.035-.384-.087-.558-.157-.157-.052-.297-.105-.435-.174-.157-.07-.297-.14-.47-.21-.279-.14-.558-.244-.802-.418-.07-.052-.14-.087-.21-.14-.344-.26-.662-.557-.959-.854-.184-.21-.419-.417-.567-.645l-.079-.07c-.227-.28-.419-.557-.637-.837-.227-.297-.419-.61-.637-.907-.227-.35-.419-.697-.637-1.082-.174-.28-.314-.558-.47-.854-.244-.523-.453-1.046-.637-1.6-.157-.48-.28-.976-.366-1.474-.087-.523-.157-1.082-.21-1.6v-.48c0-.087-.017-.174-.017-.244v-.444c0-.087 0-.157.017-.244v-.48l.017-.245c.052-.557.122-1.133.244-1.673.105-.558.279-1.116.488-1.674.244-.558.488-1.08.767-1.6.314-.558.697-1.08 1.099-1.553.087-.122.21-.21.279-.332.244-.297.54-.558.819-.854.14-.122.244-.227.366-.349.261-.21.54-.453.819-.645.244-.174.505-.297.767-.453.315-.157.645-.297.98-.435h.017c.331-.122.645-.227.997-.297.315-.087.645-.122.98-.174h.035c.157-.017.297-.053.47-.053.157-.017.297-.017.47-.035h.488c.14 0 .244.018.366.018h.383c.297.017.558.07.854.105.244.052.505.105.767.174.227.07.453.14.68.227.244.105.505.21.749.314.174.07.314.174.47.244.384.21.732.453 1.063.715.332.244.645.523.959.802.314.28.593.584.854.907.261.314.505.645.714.98.21.349.419.697.584 1.046.157.35.279.715.419 1.064.07.262.175.506.21.767v.018l.052.227c.052.297.087.61.157.907v.297c.017.105.017.192.034.297v.419c.017.105.017.21.017.332v.61z" fill="#599636"/>
</svg> 