<svg xmlns="http://www.w3.org/2000/svg" viewBox="0 0 32 32">
  <path d="M23.749 30.005c-0.119 0.063-0.109 0.083 0.005 0.025 0.037-0.015 0.068-0.036 0.095-0.061 0-0.021 0-0.021-0.1 0.036zM23.989 29.875c-0.057 0.047-0.057 0.047 0.011 0.016 0.036-0.021 0.068-0.041 0.068-0.047 0-0.027-0.016-0.021-0.079 0.031zM24.145 29.781c-0.057 0.047-0.057 0.047 0.011 0.016 0.037-0.021 0.068-0.043 0.068-0.048 0-0.025-0.016-0.020-0.079 0.032zM24.303 29.688c-0.057 0.047-0.057 0.047 0.009 0.015 0.037-0.020 0.068-0.041 0.068-0.047 0-0.025-0.016-0.020-0.077 0.032zM24.516 29.547c-0.109 0.073-0.147 0.12-0.047 0.068 0.067-0.041 0.181-0.131 0.161-0.131-0.043 0.016-0.079 0.043-0.115 0.063zM14.953 30.609c0.073-0.041 0.183-0.131 0.161-0.131-0.041 0.016-0.079 0.043-0.115 0.063-0.109 0.073-0.147 0.12-0.047 0.068zM22.871 30.325c0.037-0.015 0.068-0.036 0.095-0.061 0-0.021-0.027-0.015-0.1 0.036-0.119 0.063-0.109 0.083 0.005 0.025zM22.271 30.615c0.037-0.015 0.068-0.036 0.095-0.061 0-0.021-0.027-0.015-0.1 0.036-0.119 0.063-0.109 0.083 0.005 0.025zM22.511 30.485c0.037-0.015 0.068-0.036 0.095-0.061 0-0.021-0.027-0.015-0.1 0.036-0.119 0.063-0.109 0.083 0.005 0.025zM22.731 30.365c0.037-0.015 0.068-0.036 0.095-0.061 0-0.021-0.027-0.015-0.1 0.036-0.119 0.063-0.109 0.083 0.005 0.025zM23.011 30.225c0.037-0.015 0.068-0.036 0.095-0.061 0-0.021-0.027-0.015-0.1 0.036-0.119 0.063-0.109 0.083 0.005 0.025zM23.251 30.095c0.037-0.015 0.068-0.036 0.095-0.061 0-0.021-0.027-0.015-0.1 0.036-0.119 0.063-0.109 0.083 0.005 0.025zM23.491 29.975c0.037-0.015 0.068-0.036 0.095-0.061 0-0.021-0.027-0.015-0.1 0.036-0.119 0.063-0.109 0.083 0.005 0.025zM23.731 29.855c0.037-0.015 0.068-0.036 0.095-0.061 0-0.021-0.027-0.015-0.1 0.036-0.119 0.063-0.109 0.083 0.005 0.025zM23.972 29.735c0.037-0.015 0.068-0.036 0.095-0.061 0-0.021-0.027-0.015-0.1 0.036-0.119 0.063-0.109 0.083 0.005 0.025zM24.212 29.615c0.037-0.015 0.068-0.036 0.095-0.061 0-0.021-0.027-0.015-0.1 0.036-0.119 0.063-0.109 0.083 0.005 0.025z" fill="#000"/>
  <path d="M16 2C8.268 2 2 8.268 2 16s6.268 14 14 14 14-6.268 14-14S23.732 2 16 2zM7.4 21.2l-.2-.1c-.1 0-.1-.1-.1-.2V10.9c0-.1 0-.1.1-.2l.2-.1h2.1c.1 0 .1 0 .2.1l5.5 8.3v-8.1c0-.1 0-.1.1-.2l.2-.1h1.7c.1 0 .1 0 .2.1l.1.2v10.1c0 .1 0 .1-.1.2l-.2.1h-2c-.1 0-.1 0-.2-.1l-5.5-8.4v8.2c0 .1 0 .1-.1.2l-.2.1H7.4zm12.1-.1c-.1 0-.1 0-.1-.1v-7.1l-2.9 7.1c0 .1-.1.1-.2.1h-.4c-.1 0-.1 0-.2-.1l-2.9-7.1v7.1c0 .1 0 .1-.1.1h-1.8c-.1 0-.1 0-.1-.1V10.9c0-.1 0-.1.1-.1h2.8c.1 0 .1 0 .2.1l2.2 5.5 2.2-5.5c0-.1.1-.1.2-.1h2.8c.1 0 .1 0 .1.1v10.2c0 .1 0 .1-.1.1h-1.8z" fill="#000"/>
</svg> 