<svg xmlns="http://www.w3.org/2000/svg" viewBox="0 0 32 32">
  <path d="M16 30a2.151 2.151 0 01-1.076-.288L11.5 27.685c-.511-.286-.262-.387-.093-.446a6.828 6.828 0 001.549-.7.263.263 0 01.255.019l2.631 1.563a.34.34 0 00.318 0l10.26-5.922a.323.323 0 00.157-.278V10.075a.331.331 0 00-.159-.283l-10.26-5.917a.319.319 0 00-.317 0L5.587 9.794a.33.33 0 00-.162.281v11.841a.315.315 0 00.161.274l2.814 1.624c1.525.762 2.459-.136 2.459-1.038V11.085a.3.3 0 01.3-.3h1.3a.3.3 0 01.3.3v11.692c0 2.035-1.108 3.2-3.038 3.2a4.389 4.389 0 01-2.363-.642l-2.697-1.547a2.166 2.166 0 01-1.076-1.872V10.075A2.162 2.162 0 014.661 8.2l10.261-5.924a2.246 2.246 0 012.156 0l10.26 5.924a2.165 2.165 0 011.077 1.872v11.841a2.171 2.171 0 01-1.077 1.872l-10.26 5.924A2.152 2.152 0 0116 30z" fill="#83CD29"/>
  <path d="M14.054 17.953c-4.5 0-5.441-2.064-5.441-3.795a.3.3 0 01.3-.3h1.327a.3.3 0 01.3.262c.2 1.353.8 2.036 3.518 2.036 2.161 0 3.082-.489 3.082-1.636 0-.661-.261-1.149-3.63-1.479-2.815-.278-4.554-.9-4.554-3.157 0-2.08 1.754-3.32 4.692-3.32 3.3 0 4.932 1.147 5.141 3.61a.3.3 0 01-.3.328h-1.336a.3.3 0 01-.291-.232c-.323-1.44-1.111-1.9-3.217-1.9-2.37 0-2.646.825-2.646 1.444 0 .75.326.969 3.516 1.39 3.157.417 4.667 1.01 4.667 3.229 0 2.247-1.873 3.523-5.138 3.523z" fill="#83CD29"/>
</svg> 