<svg xmlns="http://www.w3.org/2000/svg" viewBox="0 0 32 32">
  <circle cx="16" cy="16" r="2.05" fill="#61DAFB"/>
  <path fill="none" stroke="#61DAFB" stroke-width="1" d="M16 9.2c6 0 11.4 1.1 14.8 2.8 1.8.9 3.2 2 4.1 3.1.9 1.2 1.4 2.4 1.4 3.7 0 2.6-2 5-5.5 6.9-3.4 1.7-8.8 2.8-14.8 2.8-6 0-11.4-1.1-14.8-2.8C-2.2 23.8-4 21.4-4 18.8c0-1.3.5-2.5 1.4-3.7.9-1.2 2.3-2.2 4.1-3.1C4.6 10.3 10 9.2 16 9.2z"/>
  <path fill="none" stroke="#61DAFB" stroke-width="1" d="M8.6 12.5c3-4.9 6.7-8.5 10-10.4 1.8-1 3.4-1.5 4.9-1.5 2.6 0 5 1.1 6.9 3.4 1.7 2.1 2.8 5.3 2.8 9.2 0 3.9-1.1 7.1-2.8 9.2-1.9 2.3-4.3 3.4-6.9 3.4-1.5 0-3.1-.5-4.9-1.5-3.3-1.9-7-5.5-10-10.4"/>
  <path fill="none" stroke="#61DAFB" stroke-width="1" d="M8.6 25.1c-3-4.9-4.7-9.8-4.7-13.7 0-2.1.5-3.9 1.4-5.2 1.9-2.3 4.3-3.4 6.9-3.4 2.6 0 5.7 1.1 8.9 3.4 3.2 2.3 6.2 5.5 8.6 9.2 2.4 3.7 4.1 7.7 4.7 11.1.6 3.4 0 6.1-1.4 7.8-1.9 2.3-4.3 3.4-6.9 3.4-2.6 0-5.7-1.1-8.9-3.4-3.2-2.3-6.2-5.5-8.6-9.2"/>
</svg> 