<svg xmlns="http://www.w3.org/2000/svg" viewBox="0 0 32 32">
  <rect x="2" y="2" width="28" height="28" rx="2" fill="#3178C6"/>
  <path fill="#fff" d="M17.156 17.187v3.698c.603.342 1.317.595 2.142.76.825.164 1.693.246 2.604.246 1.333 0 2.571-.234 3.714-.703 1.143-.469 2.045-1.157 2.706-2.066.661-.909.992-2.01.992-3.302 0-.736-.117-1.38-.351-1.932a4.665 4.665 0 00-.966-1.471 7.189 7.189 0 00-1.432-1.133 18.733 18.733 0 00-1.748-.938c-.481-.224-.885-.426-1.211-.604a4.09 4.09 0 01-.805-.533 1.798 1.798 0 01-.448-.533 1.337 1.337 0 01-.13-.6c0-.342.13-.636.39-.882.26-.246.676-.37 1.25-.37.328 0 .669.052 1.022.156.354.104.705.247 1.055.429.35.182.667.39.953.624v-3.47a8.602 8.602 0 00-1.887-.598 9.682 9.682 0 00-2.037-.221c-1.328 0-2.541.237-3.64.712-1.099.475-1.968 1.14-2.607 1.997-.64.857-.959 1.846-.959 2.966 0 1.094.266 2.034.799 2.82.532.785 1.185 1.419 1.959 1.9.773.482 1.549.876 2.327 1.185.778.308 1.453.589 2.024.841.572.253 1.016.51 1.334.773.318.263.477.559.477.89 0 .328-.143.615-.429.86-.286.246-.737.37-1.354.37-.442 0-.898-.078-1.367-.234a6.477 6.477 0 01-1.419-.624 5.557 5.557 0 01-1.172-.884zm-4.51-2.796H9.22v-3.11h10.729v3.11h-3.419v9.796h-3.886v-9.796z"/>
</svg> 